<svg width="74" height="19" viewBox="0 0 74 19" fill="none" xmlns="http://www.w3.org/2000/svg">
<path d="M10.9968 18L7.75678 13.32H7.56478H4.18078V18H0.292781V1.2H7.56478C9.05278 1.2 10.3408 1.448 11.4288 1.944C12.5328 2.44 13.3808 3.144 13.9728 4.056C14.5648 4.968 14.8608 6.048 14.8608 7.296C14.8608 8.544 14.5568 9.624 13.9488 10.536C13.3568 11.432 12.5088 12.12 11.4048 12.6L15.1728 18H10.9968ZM10.9248 7.296C10.9248 6.352 10.6208 5.632 10.0128 5.136C9.40478 4.624 8.51678 4.368 7.34878 4.368H4.18078V10.224H7.34878C8.51678 10.224 9.40478 9.968 10.0128 9.456C10.6208 8.944 10.9248 8.224 10.9248 7.296ZM30.9492 14.88V18H17.9412V1.2H30.6372V4.32H21.8052V7.968H29.6052V10.992H21.8052V14.88H30.9492ZM45.3479 9.336H48.8999V16.152C47.9879 16.84 46.9319 17.368 45.7319 17.736C44.5319 18.104 43.3239 18.288 42.1079 18.288C40.3639 18.288 38.7959 17.92 37.4039 17.184C36.0119 16.432 34.9159 15.4 34.1159 14.088C33.3319 12.76 32.9399 11.264 32.9399 9.6C32.9399 7.936 33.3319 6.448 34.1159 5.136C34.9159 3.808 36.0199 2.776 37.4279 2.04C38.8359 1.288 40.4199 0.912 42.1799 0.912C43.6519 0.912 44.9879 1.16 46.1879 1.656C47.3879 2.152 48.3959 2.872 49.2119 3.816L46.7159 6.12C45.5159 4.856 44.0679 4.224 42.3719 4.224C41.2999 4.224 40.3479 4.448 39.5159 4.896C38.6839 5.344 38.0359 5.976 37.5719 6.792C37.1079 7.608 36.8759 8.544 36.8759 9.6C36.8759 10.64 37.1079 11.568 37.5719 12.384C38.0359 13.2 38.6759 13.84 39.4919 14.304C40.3239 14.752 41.2679 14.976 42.3239 14.976C43.4439 14.976 44.4519 14.736 45.3479 14.256V9.336ZM52.5115 1.2H56.3995V18H52.5115V1.2ZM65.9065 18.288C64.5785 18.288 63.2905 18.112 62.0425 17.76C60.8105 17.392 59.8185 16.92 59.0665 16.344L60.3865 13.416C61.1065 13.944 61.9625 14.368 62.9545 14.688C63.9465 15.008 64.9385 15.168 65.9305 15.168C67.0345 15.168 67.8505 15.008 68.3785 14.688C68.9065 14.352 69.1705 13.912 69.1705 13.368C69.1705 12.968 69.0105 12.64 68.6905 12.384C68.3865 12.112 67.9865 11.896 67.4905 11.736C67.0105 11.576 66.3545 11.4 65.5225 11.208C64.2425 10.904 63.1945 10.6 62.3785 10.296C61.5625 9.992 60.8585 9.504 60.2665 8.832C59.6905 8.16 59.4025 7.264 59.4025 6.144C59.4025 5.168 59.6665 4.288 60.1945 3.504C60.7225 2.704 61.5145 2.072 62.5705 1.608C63.6425 1.144 64.9465 0.912 66.4825 0.912C67.5545 0.912 68.6025 1.04 69.6265 1.296C70.6505 1.552 71.5465 1.92 72.3145 2.4L71.1145 5.352C69.5625 4.472 68.0105 4.032 66.4585 4.032C65.3705 4.032 64.5625 4.208 64.0345 4.56C63.5225 4.912 63.2665 5.376 63.2665 5.952C63.2665 6.528 63.5625 6.96 64.1545 7.248C64.7625 7.52 65.6825 7.792 66.9145 8.064C68.1945 8.368 69.2425 8.672 70.0585 8.976C70.8745 9.28 71.5705 9.76 72.1465 10.416C72.7385 11.072 73.0345 11.96 73.0345 13.08C73.0345 14.04 72.7625 14.92 72.2185 15.72C71.6905 16.504 70.8905 17.128 69.8185 17.592C68.7465 18.056 67.4425 18.288 65.9065 18.288Z" fill="black"/>
</svg>
